<svg xmlns="http://www.w3.org/2000/svg" viewBox="0 0 7 7" width="70" height="70" shape-rendering="crispEdges" fill="#FFFFFF"><title>OSHO GAMES</title><rect x="2" y="0" width="1" height="1"/><rect x="3" y="0" width="1" height="1"/><rect x="4" y="0" width="1" height="1"/><rect x="1" y="1" width="1" height="1"/><rect x="5" y="1" width="1" height="1"/><rect x="1" y="2" width="1" height="1"/><rect x="5" y="2" width="1" height="1"/><rect x="1" y="3" width="1" height="1"/><rect x="5" y="3" width="1" height="1"/><rect x="1" y="4" width="1" height="1"/><rect x="5" y="4" width="1" height="1"/><rect x="1" y="5" width="1" height="1"/><rect x="5" y="5" width="1" height="1"/><rect x="2" y="6" width="1" height="1"/><rect x="3" y="6" width="1" height="1"/><rect x="4" y="6" width="1" height="1"/></svg>